<svg xmlns="http://www.w3.org/2000/svg" viewBox="0 0 600 360" preserveAspectRatio="xMidYMid slice" role="img" aria-label="雲端模式登入">
  <defs>
    <linearGradient id="bg" x1="0" y1="0" x2="1" y2="1">
      <stop offset="0" stop-color="#1f1f1f"/>
      <stop offset="1" stop-color="#070707"/>
    </linearGradient>
    <radialGradient id="glow" cx="0.5" cy="0.42" r="0.55">
      <stop offset="0" stop-color="#f77f00" stop-opacity="0.22"/>
      <stop offset="1" stop-color="#f77f00" stop-opacity="0"/>
    </radialGradient>
  </defs>

  <rect width="600" height="360" fill="url(#bg)"/>
  <rect width="600" height="360" fill="url(#glow)"/>

  <g stroke="#2a2a2a" stroke-width="0.6" opacity="0.5">
    <line x1="0" y1="60" x2="600" y2="60"/>
    <line x1="0" y1="120" x2="600" y2="120"/>
    <line x1="0" y1="180" x2="600" y2="180"/>
    <line x1="0" y1="240" x2="600" y2="240"/>
    <line x1="0" y1="300" x2="600" y2="300"/>
    <line x1="100" y1="0" x2="100" y2="360"/>
    <line x1="200" y1="0" x2="200" y2="360"/>
    <line x1="300" y1="0" x2="300" y2="360"/>
    <line x1="400" y1="0" x2="400" y2="360"/>
    <line x1="500" y1="0" x2="500" y2="360"/>
  </g>

  <g transform="translate(458, 24)">
    <rect width="118" height="30" rx="15" fill="#f77f00"/>
    <text x="59" y="20" font-family="'Segoe UI', Arial, sans-serif" font-size="13" font-weight="700" fill="#fff" text-anchor="middle" letter-spacing="1">v3.0.0  NEW</text>
  </g>

  <g transform="translate(300, 162)">
    <g fill="#f77f00">
      <circle cx="-58" cy="-2" r="36"/>
      <circle cx="-5" cy="-32" r="48"/>
      <circle cx="52" cy="-10" r="42"/>
      <rect x="-95" y="-10" width="190" height="46" rx="8"/>
    </g>
    <g stroke="#ffffff" stroke-width="7" fill="none" stroke-linecap="round" stroke-linejoin="round">
      <line x1="0" y1="22" x2="0" y2="-22"/>
      <polyline points="-17,-7 0,-24 17,-7"/>
    </g>
    <g fill="#ffffff">
      <circle cx="-40" cy="14" r="3.5"/>
      <circle cx="40" cy="14" r="3.5"/>
    </g>
  </g>

  <text x="300" y="290" font-family="'Microsoft JhengHei', 'PingFang TC', 'Heiti TC', 'Noto Sans TC', sans-serif" font-size="32" font-weight="700" fill="#ffffff" text-anchor="middle" letter-spacing="3">雲端模式登入</text>
  <line x1="265" y1="306" x2="335" y2="306" stroke="#2e8b57" stroke-width="3" stroke-linecap="round"/>
  <text x="300" y="332" font-family="'Segoe UI', Arial, sans-serif" font-size="11" font-weight="600" fill="#888888" text-anchor="middle" letter-spacing="4">CLOUD &#183; GOOGLE SIGN IN</text>
</svg>
