<svg xmlns="http://www.w3.org/2000/svg" viewBox="0 0 600 360" preserveAspectRatio="xMidYMid slice" role="img" aria-label="時序列表 TWR XIRR">
  <defs>
    <linearGradient id="bg" x1="0" y1="0" x2="1" y2="1">
      <stop offset="0" stop-color="#1f1f1f"/>
      <stop offset="1" stop-color="#070707"/>
    </linearGradient>
    <radialGradient id="glow" cx="0.5" cy="0.42" r="0.55">
      <stop offset="0" stop-color="#f77f00" stop-opacity="0.18"/>
      <stop offset="1" stop-color="#f77f00" stop-opacity="0"/>
    </radialGradient>
  </defs>

  <rect width="600" height="360" fill="url(#bg)"/>
  <rect width="600" height="360" fill="url(#glow)"/>

  <g stroke="#2a2a2a" stroke-width="0.6" opacity="0.45">
    <line x1="0" y1="60" x2="600" y2="60"/>
    <line x1="0" y1="120" x2="600" y2="120"/>
    <line x1="0" y1="180" x2="600" y2="180"/>
    <line x1="0" y1="240" x2="600" y2="240"/>
    <line x1="0" y1="300" x2="600" y2="300"/>
    <line x1="100" y1="0" x2="100" y2="360"/>
    <line x1="200" y1="0" x2="200" y2="360"/>
    <line x1="300" y1="0" x2="300" y2="360"/>
    <line x1="400" y1="0" x2="400" y2="360"/>
    <line x1="500" y1="0" x2="500" y2="360"/>
  </g>

  <g transform="translate(458, 24)">
    <rect width="118" height="30" rx="15" fill="#f77f00"/>
    <text x="59" y="20" font-family="'Segoe UI', Arial, sans-serif" font-size="13" font-weight="700" fill="#fff" text-anchor="middle" letter-spacing="1">v3.0.0  NEW</text>
  </g>

  <g transform="translate(300, 160)">
    <g transform="translate(-130, -68)">
      <rect width="120" height="40" rx="6" fill="#2e8b57"/>
      <text x="60" y="26" font-family="'Segoe UI', Arial, sans-serif" font-size="17" font-weight="700" fill="#ffffff" text-anchor="middle" letter-spacing="1">TWR</text>
    </g>
    <g transform="translate(10, -68)">
      <rect width="120" height="40" rx="6" fill="#13a4f3"/>
      <text x="60" y="26" font-family="'Segoe UI', Arial, sans-serif" font-size="17" font-weight="700" fill="#ffffff" text-anchor="middle" letter-spacing="1">XIRR</text>
    </g>

    <text x="0" y="3" font-family="'Segoe UI', Arial, sans-serif" font-size="46" font-weight="800" fill="#f77f00" text-anchor="middle" letter-spacing="1">+14.21%</text>

    <line x1="-130" y1="50" x2="130" y2="50" stroke="#555" stroke-width="2"/>
    <g fill="#f77f00">
      <circle cx="-130" cy="50" r="7"/>
      <circle cx="130" cy="50" r="7"/>
    </g>
    <g fill="#666">
      <circle cx="-65" cy="50" r="4.5"/>
      <circle cx="0" cy="50" r="4.5"/>
      <circle cx="65" cy="50" r="4.5"/>
    </g>

    <g font-family="'Microsoft JhengHei', 'PingFang TC', sans-serif" font-size="12" fill="#aaaaaa">
      <text x="-130" y="76" text-anchor="middle">起始</text>
      <text x="130" y="76" text-anchor="middle">結束</text>
    </g>
  </g>

  <text x="300" y="290" font-family="'Microsoft JhengHei', 'PingFang TC', 'Heiti TC', 'Noto Sans TC', sans-serif" font-size="32" font-weight="700" fill="#ffffff" text-anchor="middle" letter-spacing="3">時序列表</text>
  <line x1="265" y1="306" x2="335" y2="306" stroke="#2e8b57" stroke-width="3" stroke-linecap="round"/>
  <text x="300" y="332" font-family="'Segoe UI', Arial, sans-serif" font-size="11" font-weight="600" fill="#888888" text-anchor="middle" letter-spacing="4">TWR &#183; XIRR &#183; PERIOD RETURN</text>
</svg>
