<svg xmlns="http://www.w3.org/2000/svg" viewBox="0 0 600 360" preserveAspectRatio="xMidYMid slice" role="img" aria-label="庫存損益走勢圖表">
  <defs>
    <linearGradient id="bg" x1="0" y1="0" x2="1" y2="1">
      <stop offset="0" stop-color="#1f1f1f"/>
      <stop offset="1" stop-color="#070707"/>
    </linearGradient>
    <radialGradient id="glow" cx="0.5" cy="0.42" r="0.55">
      <stop offset="0" stop-color="#13a4f3" stop-opacity="0.18"/>
      <stop offset="1" stop-color="#13a4f3" stop-opacity="0"/>
    </radialGradient>
    <linearGradient id="blueFill" x1="0" y1="0" x2="0" y2="1">
      <stop offset="0" stop-color="#13a4f3" stop-opacity="0.45"/>
      <stop offset="1" stop-color="#13a4f3" stop-opacity="0"/>
    </linearGradient>
    <linearGradient id="greenFill" x1="0" y1="0" x2="0" y2="1">
      <stop offset="0" stop-color="#2e8b57" stop-opacity="0.4"/>
      <stop offset="1" stop-color="#2e8b57" stop-opacity="0"/>
    </linearGradient>
  </defs>

  <rect width="600" height="360" fill="url(#bg)"/>
  <rect width="600" height="360" fill="url(#glow)"/>

  <g stroke="#2a2a2a" stroke-width="0.6" opacity="0.45">
    <line x1="0" y1="60" x2="600" y2="60"/>
    <line x1="0" y1="120" x2="600" y2="120"/>
    <line x1="0" y1="180" x2="600" y2="180"/>
    <line x1="0" y1="240" x2="600" y2="240"/>
    <line x1="0" y1="300" x2="600" y2="300"/>
    <line x1="100" y1="0" x2="100" y2="360"/>
    <line x1="200" y1="0" x2="200" y2="360"/>
    <line x1="300" y1="0" x2="300" y2="360"/>
    <line x1="400" y1="0" x2="400" y2="360"/>
    <line x1="500" y1="0" x2="500" y2="360"/>
  </g>

  <g transform="translate(458, 24)">
    <rect width="118" height="30" rx="15" fill="#f77f00"/>
    <text x="59" y="20" font-family="'Segoe UI', Arial, sans-serif" font-size="13" font-weight="700" fill="#fff" text-anchor="middle" letter-spacing="1">v3.0.0  NEW</text>
  </g>

  <g transform="translate(150, 75)">
    <rect width="300" height="170" fill="#0d0d0d" stroke="#333" stroke-width="1" rx="6"/>
    <g stroke="#262626" stroke-width="0.8">
      <line x1="0" y1="42" x2="300" y2="42"/>
      <line x1="0" y1="85" x2="300" y2="85"/>
      <line x1="0" y1="128" x2="300" y2="128"/>
      <line x1="60" y1="0" x2="60" y2="170"/>
      <line x1="120" y1="0" x2="120" y2="170"/>
      <line x1="180" y1="0" x2="180" y2="170"/>
      <line x1="240" y1="0" x2="240" y2="170"/>
    </g>

    <polygon points="10,140 35,118 60,124 85,88 110,72 135,52 160,38 185,52 210,30 235,18 260,12 285,8 285,170 10,170" fill="url(#blueFill)"/>
    <polygon points="10,155 35,150 60,148 85,134 110,120 135,108 160,98 185,105 210,82 235,68 260,55 285,42 285,170 10,170" fill="url(#greenFill)"/>

    <polyline points="10,140 35,118 60,124 85,88 110,72 135,52 160,38 185,52 210,30 235,18 260,12 285,8" stroke="#13a4f3" stroke-width="3" fill="none" stroke-linejoin="round" stroke-linecap="round"/>
    <polyline points="10,155 35,150 60,148 85,134 110,120 135,108 160,98 185,105 210,82 235,68 260,55 285,42" stroke="#2e8b57" stroke-width="3" fill="none" stroke-linejoin="round" stroke-linecap="round"/>

    <g transform="translate(14, 14)">
      <rect width="100" height="22" rx="3" fill="rgba(0,0,0,0.5)"/>
      <line x1="6" y1="10" x2="20" y2="10" stroke="#13a4f3" stroke-width="3"/>
      <text x="26" y="14" font-family="'Microsoft JhengHei', 'PingFang TC', sans-serif" font-size="11" fill="#dddddd">庫存淨值</text>
    </g>
    <g transform="translate(120, 14)">
      <rect width="76" height="22" rx="3" fill="rgba(0,0,0,0.5)"/>
      <line x1="6" y1="10" x2="20" y2="10" stroke="#2e8b57" stroke-width="3"/>
      <text x="26" y="14" font-family="'Microsoft JhengHei', 'PingFang TC', sans-serif" font-size="11" fill="#dddddd">損益</text>
    </g>
  </g>

  <text x="300" y="288" font-family="'Microsoft JhengHei', 'PingFang TC', 'Heiti TC', 'Noto Sans TC', sans-serif" font-size="28" font-weight="700" fill="#ffffff" text-anchor="middle" letter-spacing="3">庫存損益走勢圖表</text>
  <line x1="265" y1="305" x2="335" y2="305" stroke="#f77f00" stroke-width="3" stroke-linecap="round"/>
  <text x="300" y="331" font-family="'Segoe UI', Arial, sans-serif" font-size="11" font-weight="600" fill="#888888" text-anchor="middle" letter-spacing="4">EQUITY &#183; PROFIT TREND</text>
</svg>
